<svg width="102" height="48" viewBox="0 0 102 48" fill="none" xmlns="http://www.w3.org/2000/svg">
<path d="M10.8542 44.4706C9.90011 44.4706 8.98943 44.3162 8.12211 44.0074C7.2548 43.7132 6.50313 43.2279 5.8671 42.5515C5.23107 41.875 4.7685 40.9779 4.47939 39.8603L4.45771 39.6176C4.45771 39.3382 4.55167 39.1103 4.73959 38.9338C4.92751 38.7574 5.14433 38.6691 5.39007 38.6691C5.82373 38.6691 6.12729 38.9118 6.30075 39.3971C6.50313 40.2059 6.85728 40.7794 7.36321 41.1176C7.86915 41.4706 8.44013 41.6471 9.07616 41.6471C10.2615 41.6471 11.295 41.3235 12.1768 40.6765C15.0534 38.5882 16.9037 33.6544 17.7276 25.875C17.0627 27.3162 16.2821 28.6544 15.3859 29.8897C14.4896 31.1103 13.4633 32.1103 12.3069 32.8897C11.1505 33.6544 9.83506 34.0368 8.36063 34.0368C6.45253 34.0368 4.89137 33.5588 3.67713 32.6029C2.46289 31.6324 1.56666 30.3382 0.988454 28.7206C0.424699 27.0882 0.142822 25.2721 0.142822 23.2721C0.142822 21.2868 0.410244 19.2132 0.945088 17.0515C1.47993 14.8897 2.24606 12.8015 3.24347 10.7868C4.24088 8.75735 5.44067 6.93382 6.84283 5.31618C8.25944 3.69853 9.84951 2.41176 11.6131 1.45588C13.391 0.485294 15.3136 0 17.3807 0C18.6383 0 19.6285 0.264706 20.3512 0.794118C21.0885 1.32353 21.6161 2.02941 21.9341 2.91176C22.2521 3.77941 22.4111 4.72059 22.4111 5.73529C22.4111 7 22.2232 8.27941 21.8474 9.57353C21.486 10.8529 21.0306 11.9632 20.4813 12.9044C20.2645 13.2132 19.9971 13.3676 19.6791 13.3676C19.4333 13.3676 19.2165 13.2721 19.0286 13.0809C18.8407 12.8897 18.7467 12.6691 18.7467 12.4191C18.7467 12.2426 18.7901 12.0809 18.8768 11.9338C19.2526 11.3015 19.6285 10.3824 20.0043 9.17647C20.3802 7.95588 20.5681 6.77941 20.5681 5.64706C20.5681 3.66176 19.8236 2.66912 18.3347 2.66912C17.0193 2.66912 15.7473 3.16912 14.5186 4.16912C13.3043 5.16912 12.1768 6.48529 11.136 8.11765C10.0953 9.75 9.18457 11.5515 8.40399 13.5221C7.63786 15.4926 7.03074 17.4853 6.58263 19.5C6.14897 21.5147 5.93215 23.3676 5.93215 25.0588C5.93215 26.2941 6.06224 27.3897 6.32244 28.3456C6.58263 29.3015 6.98738 30.0515 7.53668 30.5956C8.10043 31.1397 8.81597 31.4118 9.68328 31.4118C11.2011 31.3088 12.5237 30.5368 13.6512 29.0956C14.7932 27.6544 15.7473 25.9926 16.5134 24.1103C17.2795 22.2279 17.8649 20.5809 18.2697 19.1691C18.4432 18.6544 18.7901 18.2794 19.3105 18.0441C19.8453 17.7941 20.4235 17.6691 21.0451 17.6691C21.5944 17.6691 22.1292 17.7574 22.6496 17.9338C23.17 18.0956 23.5964 18.3382 23.9289 18.6618C24.2758 18.9853 24.4493 19.3676 24.4493 19.8088V19.8971C24.2469 23.5147 23.7844 26.9485 23.0616 30.1985C22.1509 34.3015 20.7994 37.5882 19.0069 40.0588C16.882 43 14.1644 44.4706 10.8542 44.4706Z" fill="black"/>
<path d="M34.1415 34.1029C32.4503 34.1029 31.0409 33.6765 29.9134 32.8235C28.8003 31.9559 27.9692 30.8309 27.4199 29.4485C26.8561 28.0515 26.5742 26.5735 26.5742 25.0147C26.5742 23.3529 26.885 21.7206 27.5066 20.1176C28.1282 18.5147 29.0605 17.1618 30.3037 16.0588C31.5613 14.9559 33.1152 14.2721 34.9655 14.0074C35.2257 13.6691 35.5582 13.4118 35.9629 13.2353C36.3677 13.0588 36.7941 12.9706 37.2422 12.9706C39.3093 12.9706 40.8199 14.0441 41.7739 16.1912C42.54 17.8971 42.9231 19.8971 42.9231 22.1912L42.8797 23.2941C44.253 22.75 45.6841 21.5147 47.1729 19.5882C47.3898 19.3382 47.6211 19.2132 47.8668 19.2132C48.127 19.2132 48.3583 19.3088 48.5606 19.5C48.763 19.6912 48.8642 19.9191 48.8642 20.1838C48.8642 20.375 48.7919 20.5662 48.6474 20.7574C46.6236 23.3309 44.6144 24.8676 42.6195 25.3676C42.316 26.9265 41.7956 28.3676 41.0584 29.6912C40.3212 31 39.3743 32.0662 38.2179 32.8897C37.0615 33.6985 35.7027 34.1029 34.1415 34.1029ZM34.5102 32.1838C35.1606 32.1838 35.7533 31.8456 36.2881 31.1691C36.823 30.4926 37.2928 29.6103 37.6975 28.5221C38.1023 27.4191 38.4203 26.2279 38.6516 24.9485C37.553 24.3309 36.6784 23.3015 36.028 21.8603C35.3775 20.4044 35.0016 18.7059 34.9004 16.7647C34.062 17.5882 33.4043 18.9559 32.9273 20.8676C32.4503 22.7647 32.2118 24.6544 32.2118 26.5368C32.2118 27.5515 32.2913 28.4926 32.4503 29.3603C32.6093 30.2132 32.855 30.8971 33.1875 31.4118C33.5344 31.9265 33.9753 32.1838 34.5102 32.1838ZM38.9551 22.7868C38.9696 22.5662 38.9768 22.2279 38.9768 21.7721C38.9768 21.0662 38.9335 20.2132 38.8467 19.2132C38.7744 18.1985 38.6299 17.3088 38.4131 16.5441C38.2107 15.7794 37.9071 15.3971 37.5024 15.3971C37.1699 15.3971 37.0037 15.8235 37.0037 16.6765C37.0037 17.6618 37.1771 18.7794 37.5241 20.0294C37.8855 21.2794 38.3625 22.1985 38.9551 22.7868Z" fill="black"/>
<path d="M52.5286 48C51.2999 48 50.2736 47.6324 49.4496 46.8971C48.6257 46.1618 48.2137 45.2059 48.2137 44.0294C48.2137 42.7353 48.7486 41.3897 49.8183 39.9926C50.7289 38.8309 51.7914 37.7206 53.0056 36.6618C54.2199 35.6029 55.4413 34.6029 56.67 33.6618L57.8626 32.7132C58.2095 30.375 58.4769 28.0809 58.6649 25.8309C58.1878 27.2574 57.6313 28.5809 56.9953 29.8015C56.3737 31.0074 55.6582 31.9926 54.8487 32.7574C54.0536 33.5074 53.1502 33.8824 52.1383 33.8824C50.0423 33.8824 48.539 33.0221 47.6283 31.3015C46.8477 29.8603 46.4574 27.8897 46.4574 25.3897C46.4574 22.6103 46.8838 19.3824 47.7367 15.7059C47.8523 15.2206 48.1342 14.8676 48.5823 14.6471C49.0304 14.4265 49.5364 14.3162 50.1001 14.3162C50.6783 14.3162 51.2565 14.4191 51.8348 14.625C52.413 14.8162 52.8972 15.0956 53.2875 15.4632C53.6778 15.8162 53.8729 16.2279 53.8729 16.6985C53.8007 17.1985 53.62 18.0147 53.3309 19.1471C52.9984 20.4265 52.6587 21.8971 52.3118 23.5588C51.9793 25.2206 51.8131 26.7868 51.8131 28.2574C51.8131 30.0368 52.2178 30.9265 53.0273 30.9265C53.7356 30.8235 54.4728 29.9265 55.239 28.2353C56.0196 26.5441 56.7351 24.6324 57.3856 22.5C58.0505 20.3529 58.5637 18.5588 58.9251 17.1176C59.1274 16.1912 59.4527 15.4926 59.9008 15.0221C60.3489 14.5515 61.1222 14.3162 62.2208 14.3162C63.0159 14.3162 63.7459 14.4926 64.4108 14.8456C65.0758 15.1838 65.4082 15.6912 65.4082 16.3676C65.3938 18.9853 65.1336 22.4559 64.6276 26.7794C66.7237 24.6765 68.1836 22.3824 69.0076 19.8971C69.1521 19.4559 69.434 19.2353 69.8532 19.2353C70.099 19.2353 70.323 19.3162 70.5254 19.4779C70.7278 19.6397 70.8289 19.8603 70.8289 20.1397C70.8289 20.2426 70.8145 20.3456 70.7856 20.4485C69.8026 23.5221 67.5982 26.6324 64.1723 29.7794C63.3339 34.8824 62.0691 39.0294 60.3778 42.2206C58.3396 46.0735 55.7232 48 52.5286 48ZM51.8131 45.6397C52.7238 45.6397 53.526 45.1838 54.2199 44.2721C54.9282 43.3603 55.5425 42.1397 56.0629 40.6103C56.5833 39.0956 57.0242 37.3971 57.3856 35.5147C55.8678 36.75 54.733 37.6985 53.9814 38.3603C52.9839 39.2279 52.1022 40.1324 51.3361 41.0735C50.541 42.0882 50.1435 43.0147 50.1435 43.8529C50.1435 44.9412 50.7 45.5368 51.8131 45.6397Z" fill="black"/>
<path d="M74.1898 33.8824C72.1227 33.8824 70.6338 32.8382 69.7231 30.75C68.9714 29.0147 68.5956 26.6838 68.5956 23.7574C68.5956 20.5956 68.9353 17.3603 69.6147 14.0515C69.2967 14.0809 69.0654 14.0956 68.9209 14.0956C68.7763 14.0956 68.6245 14.1029 68.4655 14.1176C68.292 14.1324 68.0535 14.1544 67.75 14.1838H67.6632C67.4031 14.1838 67.2079 14.0956 67.0778 13.9191C66.9333 13.7426 66.861 13.5441 66.861 13.3235C66.861 13.1324 66.926 12.9559 67.0561 12.7941C67.1718 12.6324 67.3525 12.5368 67.5982 12.5074C68.6245 12.375 69.4196 12.2868 69.9833 12.2426L70.6555 9.11029L70.8723 8.16177C70.9879 7.67647 71.2698 7.32353 71.7179 7.10294C72.1661 6.88235 72.672 6.77206 73.2357 6.77206C73.8139 6.77206 74.3922 6.875 74.9704 7.08088C75.5486 7.27206 76.0328 7.55147 76.4231 7.91912C76.8134 8.27206 77.0086 8.68382 77.0086 9.15441C77.0086 9.40441 76.958 9.73529 76.8568 10.1471L76.4665 12.1103C76.958 12.125 77.6807 12.1618 78.6348 12.2206C78.9383 12.25 79.1624 12.3676 79.3069 12.5735C79.466 12.7647 79.5454 12.9926 79.5454 13.2574C79.5454 13.5368 79.4515 13.8015 79.2636 14.0515C79.0901 14.3015 78.8371 14.4265 78.5047 14.4265C78.1577 14.4118 77.8686 14.3897 77.6374 14.3603C77.4205 14.3309 77.1965 14.3015 76.9652 14.2721C76.7484 14.2426 76.452 14.2059 76.0762 14.1618C75.9895 14.6765 75.816 15.7647 75.5558 17.4265C75.2956 19.0735 75.0426 20.9265 74.7969 22.9853C74.5656 25.0294 74.45 26.8088 74.45 28.3235C74.45 30.3088 74.7102 31.3015 75.2306 31.3015C75.8232 31.3015 76.4159 30.8382 77.0086 29.9118C77.6157 28.9706 78.1722 27.8456 78.6781 26.5368C79.1985 25.2279 79.6394 23.9706 80.0008 22.7647C80.3766 21.5441 80.6296 20.6103 80.7597 19.9632C80.8175 19.7132 80.9259 19.5294 81.0849 19.4118C81.2584 19.2941 81.4391 19.2353 81.627 19.2353C81.8727 19.2353 82.0968 19.3162 82.2992 19.4779C82.5015 19.6397 82.6027 19.8676 82.6027 20.1618C82.5594 20.5882 82.3136 21.6471 81.8655 23.3382C81.1283 26.1176 80.2176 28.4338 79.1335 30.2868C77.7169 32.6838 76.069 33.8824 74.1898 33.8824Z" fill="black"/>
<path d="M87.1345 34.1029C85.4432 34.1029 84.0338 33.6765 82.9063 32.8235C81.7932 31.9559 80.9621 30.8309 80.4128 29.4485C79.849 28.0515 79.5671 26.5735 79.5671 25.0147C79.5671 23.3529 79.8779 21.7206 80.4995 20.1176C81.1211 18.5147 82.0534 17.1618 83.2966 16.0588C84.5542 14.9559 86.1081 14.2721 87.9584 14.0074C88.2186 13.6691 88.5511 13.4118 88.9558 13.2353C89.3606 13.0588 89.787 12.9706 90.2351 12.9706C92.3022 12.9706 93.8128 14.0441 94.7668 16.1912C95.5329 17.8971 95.916 19.8971 95.916 22.1912L95.8726 23.2941C97.2459 22.75 98.677 21.5147 100.166 19.5882C100.383 19.3382 100.614 19.2132 100.86 19.2132C101.12 19.2132 101.351 19.3088 101.554 19.5C101.756 19.6912 101.857 19.9191 101.857 20.1838C101.857 20.375 101.785 20.5662 101.64 20.7574C99.6165 23.3309 97.6073 24.8676 95.6124 25.3676C95.3089 26.9265 94.7885 28.3676 94.0513 29.6912C93.3141 31 92.3672 32.0662 91.2108 32.8897C90.0544 33.6985 88.6956 34.1029 87.1345 34.1029ZM87.5031 32.1838C88.1535 32.1838 88.7462 31.8456 89.2811 31.1691C89.8159 30.4926 90.2857 29.6103 90.6904 28.5221C91.0952 27.4191 91.4132 26.2279 91.6445 24.9485C90.5459 24.3309 89.6713 23.3015 89.0209 21.8603C88.3704 20.4044 87.9945 18.7059 87.8933 16.7647C87.0549 17.5882 86.3972 18.9559 85.9202 20.8676C85.4432 22.7647 85.2047 24.6544 85.2047 26.5368C85.2047 27.5515 85.2842 28.4926 85.4432 29.3603C85.6022 30.2132 85.8479 30.8971 86.1804 31.4118C86.5273 31.9265 86.9682 32.1838 87.5031 32.1838ZM91.948 22.7868C91.9625 22.5662 91.9697 22.2279 91.9697 21.7721C91.9697 21.0662 91.9264 20.2132 91.8396 19.2132C91.7674 18.1985 91.6228 17.3088 91.406 16.5441C91.2036 15.7794 90.9 15.3971 90.4953 15.3971C90.1628 15.3971 89.9966 15.8235 89.9966 16.6765C89.9966 17.6618 90.1701 18.7794 90.517 20.0294C90.8784 21.2794 91.3554 22.1985 91.948 22.7868Z" fill="black"/>
</svg>
